<svg id="圖層_1" data-name="圖層 1" xmlns="http://www.w3.org/2000/svg" viewBox="0 0 240 56"><defs><style>.cls-1{fill:#004877;}.cls-2{fill:#1f507d;}.cls-3{fill:#dbdcdc;}.cls-4{fill:#f7f7f7;}.cls-5{fill:#edb033;}.cls-6{fill:#285d85;}.cls-7{fill:#fff;}</style></defs><title>2017-Glossika-logo</title><path class="cls-1" d="M100.9,38.3H98.1l-0.7-2.9a11.3,11.3,0,0,1-8.6,3.5c-9.5,0-13.3-5.4-13.3-11.6s4-11.6,13.1-11.6c6.9,0,11.2,3.4,11.8,7.7H95.4c-0.9-3-3.7-4.2-6.8-4.2-5.8,0-8.1,3.5-8.1,8.3s3.9,8,7.8,8,7-2.2,7.8-5.8H89.8V26.2h11.1V38.3Z"/><path class="cls-1" d="M105.1,16h4.4V38.3h-4.4V16Z"/><path class="cls-1" d="M122.8,21.4c7.5,0,10.4,4.3,10.4,8.8s-2.9,8.8-10.4,8.8-10.4-4.3-10.4-8.8S115.3,21.4,122.8,21.4Zm0,14.3c4.2,0,5.8-2.7,5.8-5.5s-1.6-5.5-5.8-5.5-5.8,2.7-5.8,5.5S118.5,35.7,122.8,35.7Z"/><path class="cls-1" d="M139.8,33.2c0.1,2.5,3,2.8,4.6,2.8s4.5-.6,4.5-2.1-0.7-1.7-5.4-2.3-7.9-1.3-7.9-5,5.6-5.3,8.4-5.3,8.8,0.4,9.1,5.6h-4.5c-0.3-2.4-3.3-2.7-4.7-2.7s-3.8,1-3.8,1.9,0.4,1.5,4.6,2.1,9.1,1.3,9.1,5.1-4.1,5.6-9.3,5.6c-3.6,0-9.2-.7-9.4-5.7h4.7Z"/><path class="cls-1" d="M160.3,33.2c0.1,2.5,3,2.8,4.6,2.8s4.5-.6,4.5-2.1-0.7-1.7-5.4-2.3-7.9-1.3-7.9-5,5.6-5.3,8.4-5.3,8.8,0.4,9.1,5.6H169c-0.3-2.4-3.3-2.7-4.7-2.7s-3.8,1-3.8,1.9,0.4,1.5,4.6,2.1,9.1,1.3,9.1,5.1-4.1,5.6-9.3,5.6c-3.6,0-9.2-.7-9.4-5.7h4.7Z"/><path class="cls-1" d="M177,16h4.4v3.4H177V16Zm0,6h4.4V38.3H177V22Z"/><path class="cls-1" d="M185.1,16h4.4V28.5l7.7-6.5h6.2l-7.7,6.2L204,38.3h-5.9l-5.9-7.4L189.4,33v5.3h-4.4V16Z"/><path class="cls-1" d="M222.9,34.6a0.8,0.8,0,0,0,.9.9h1.4v3a14,14,0,0,1-3.1.4c-2.8,0-3.2-1.5-3.3-2.1s-3,2.2-7.9,2.2-6.8-1.9-6.8-5.1,4.7-4.9,7.5-5.1c6.3-.6,6.9-0.8,6.9-2.1s-2.2-2.3-4.7-2.3-4.4.9-4.6,2.7h-4.3c0.6-4.3,3.9-5.6,8.8-5.6,8.8,0,9,3.4,9,5.5v7.7Zm-4.4-4.4c-1.3.5-2.6,0.7-5.7,1s-4.1,1.1-4.1,2.5,2,2.6,3.5,2.6,6.3-.9,6.3-4.5V30.2Z"/><polygon class="cls-2" points="16.7 27.7 15.2 33.2 17.9 37.3 16.9 32.2 16.7 27.7"/><path class="cls-3" d="M59.2,28.9C59.8,40.1,48.9,44,36.5,44.6S17.2,42,16.7,30.8s7-20.3,19.4-20.8S58.7,17.7,59.2,28.9Z"/><polyline class="cls-3" points="27.3 52.5 60.7 44.8 59.1 28.5 20.3 43.6 19.8 46.1 27.3 52.5"/><path class="cls-4" d="M27.2,41.5s-0.1,2.9-.1,4.2,0.2,6.8.2,6.8l-7.6-6.4,0.6-3.6s-3.8-4.4-3.8-13.4C16.5,16.5,27.5,11.8,27.5,11.8l0.7,17.9Z"/><path class="cls-5" d="M26.1,28.3a3.6,3.6,0,0,1-4.5,3,4.2,4.2,0,0,1-2.7-5,3.6,3.6,0,0,1,4.5-3A4.2,4.2,0,0,1,26.1,28.3Z"/><path class="cls-6" d="M23.9,24.8a2.9,2.9,0,0,1,.3,3.7,2.2,2.2,0,0,1-3.3.3,2.9,2.9,0,0,1-.3-3.7A2.2,2.2,0,0,1,23.9,24.8Z"/><path class="cls-7" d="M22.5,26.2a1,1,0,0,1,.1,1.3,0.8,0.8,0,0,1-1.2.1,1,1,0,0,1-.1-1.3A0.8,0.8,0,0,1,22.5,26.2Z"/><path class="cls-5" d="M45.5,24.7a5.4,5.4,0,0,1-3,7.2,5.6,5.6,0,0,1-7.3-2.9,5.4,5.4,0,0,1,3-7.2A5.6,5.6,0,0,1,45.5,24.7Z"/><ellipse class="cls-6" cx="40" cy="26.5" rx="3.5" ry="3.6" transform="translate(11.2 64.8) rotate(-86.7)"/><ellipse class="cls-7" cx="39.6" cy="26.3" rx="1.3" ry="1.3" transform="translate(11 64.4) rotate(-86.7)"/><polygon class="cls-4" points="18.7 21.4 26.6 30.2 28.3 31.7 27.7 19.6 18.7 21.4"/><polygon class="cls-3" points="44.9 21 27.9 19.6 27.7 19.6 27.6 31.7 30 30.3 44.9 21"/><path class="cls-5" d="M27.6,29.9s-2-.3-2.7,3.8,2.4,7.9,2.4,7.9l3.2-7.7Z"/><path class="cls-1" d="M27.7,11.6a18.8,18.8,0,0,1,7.7-1.9,31,31,0,0,1,8.6.6L27.6,29.9l-4.4-7.2Z"/><path class="cls-6" d="M27.1,4.3S19.9,8,18.8,14.4s8.8,15.5,8.8,15.5a16.9,16.9,0,0,1,1.6-19Z"/><path class="cls-6" d="M57.9,4.6S35.3,2.3,27.6,29.9c0,0,10.4-7.2,14.4-9.3s10.9-4.9,10.9-4.9A41.2,41.2,0,0,0,57.9,4.6Z"/><polygon class="cls-2" points="49.8 23.7 55 32 43.9 37.9 50 30 49.8 23.7"/></svg>