<svg xmlns="http://www.w3.org/2000/svg" width="800" height="510"><path d="M471.65 426.075c-8.515-1.442-14.19-7.687-12.066-13.276.973-2.558 7.012-7.807 13.378-11.627l3.812-2.287-2.062-2.195c-2.75-2.927-2.61-3.926.967-6.936l3.03-2.548-2.78-1.438c-4.227-2.186-6.392-5.09-6.962-9.334-1.197-8.923 4.405-18.106 14.015-22.975 4.02-2.037 5.827-2.395 9.563-1.895 11.778 1.575 14.056 1.67 17.463.73 5.638-1.557 4.7 1.19-1.367 4.007-4.646 2.156-4.976 2.545-4.525 5.326.7 4.315-.87 10.036-3.988 14.536-1.963 2.833-5.005 5.08-11.086 8.184-4.61 2.354-8.382 4.82-8.385 5.483-.005 1.322 1.363 2.394 10.98 8.607 6.72 4.34 11.017 9.45 11 13.087-.016 8.746-17.318 16.87-30.996 14.552zm15.917-3.926c4.282-1.228 8.083-4.735 8.083-7.458 0-2.702-3.44-6.356-9.866-10.48-6.097-3.913-8.763-3.658-13.734 1.314-6.134 6.134-5.403 12.335 1.843 15.624 4.763 2.162 8.636 2.445 13.674 1zm2.143-41.727c4.218-3.55 5.94-7.92 5.94-15.076 0-8.08-2.666-10.954-9.5-10.243-5.15.536-8.5 6.98-8.5 16.355 0 10.796 5.247 14.696 12.06 8.964zm144.094 45.564c-9.46-1.717-14.65-8.012-11.563-14.02 1.69-3.286 7.286-7.98 12.477-10.468 2.15-1.03 3.914-2.14 3.92-2.467s-.888-1.41-1.988-2.405c-2.857-2.586-2.476-5.002 1.15-7.298l3.15-1.995-2.903-1.5c-4.558-2.357-6.593-5.254-7.148-10.177-1.396-12.38 11.7-25.696 23.673-24.09 11.715 1.57 14.027 1.668 17.432.727 2.004-.553 3.644-.625 3.644-.16 0 1.257-4.992 4.952-7.562 5.597-1.993.5-2.238 1.19-2.238 6.335 0 9.66-4.362 15.334-16.185 21.053-3.86 1.867-7.015 3.912-7.015 4.546 0 1.52 2.32 3.427 9 7.398 11.31 6.726 14.873 12.54 11.583 18.903-3.586 6.935-18.485 12.008-29.43 10.02zm15.763-3.837c4.282-1.228 8.083-4.735 8.083-7.458 0-2.702-3.44-6.356-9.866-10.48-6.097-3.913-8.763-3.658-13.734 1.314-6.134 6.134-5.403 12.335 1.843 15.624 4.763 2.162 8.636 2.445 13.674 1zm2.143-41.727c4.218-3.55 5.94-7.92 5.94-15.076 0-7.35-2.2-10.22-7.865-10.22-6.626 0-10.135 5.69-10.135 16.43 0 10.696 5.275 14.575 12.06 8.866zm-297.757 18.042c-4.03-6.15-1.008-22.98 5.958-33.184 3.443-5.044 12.555-11.283 19.2-13.14 3.826-1.07 16.122-.9 17.1.24.117.136-1.642 9.327-3.91 20.425s-3.797 20.502-3.4 20.9 2.538-.537 4.758-2.075c4.073-2.823 6.355-2.838 4.022-.026-2.13 2.566-13.14 9.526-15.068 9.526-2.767 0-3.176-3.06-1.49-11.147.844-4.044 1.534-7.647 1.535-8.006s-3.037 2.518-6.75 6.394c-7.472 7.8-14.438 12.76-17.923 12.76-1.367 0-2.98-1.067-4.025-2.66zm15.505-7.314c4.75-3.44 11.86-12.054 13.854-16.784 1.662-3.942 4.357-16.403 3.758-17.372-.99-1.603-8.266-1.958-11.542-.564-4.48 1.907-7.23 5.042-10.292 11.73-4.646 10.148-5.417 25.966-1.266 25.966.76 0 3.23-1.34 5.49-2.975zm40.194 8.832c.001-.746 2-10.13 4.42-20.853s4.232-19.684 4.003-19.912c-.454-.454-3.93 1.18-6.627 3.116-.936.672-2.044.88-2.46.463-1.396-1.396 12.333-11.67 15.593-11.67 1.73 0 2.064.613 2.034 3.75-.02 2.063-.657 6.348-1.415 9.524l-1.38 5.774 7.89-7.423c8.15-7.666 14.67-11.625 19.15-11.625 5.02 0 4.98 3.872-.267 25.495-2.232 9.197-3.816 16.964-3.52 17.26s2.325-.645 4.5-2.09 4.224-2.22 4.532-1.723c1.1 1.778-12.166 11.06-15.807 11.06-2.74 0-2.658-3.245.4-15.85 6.023-24.827 6.102-25.256 4.927-26.672-1.79-2.158-6.22.044-12.775 6.352-8.13 7.824-10.76 12.32-12.678 21.67l-2.077 10.14c-.25 1.225-1.468 2.4-2.85 2.746-1.33.333-3.133.88-4.01 1.218-.975.374-1.592.085-1.592-.746zm109.974-1.422c-1.38-3.626-1.357-3.81 2.525-21.435l3.5-16.946c0-1.642-1.916-1.25-5.153 1.055-1.63 1.16-3.238 1.833-3.575 1.496-1.72-1.72 11.65-11.605 15.693-11.605 2.143 0 2.254.304 1.733 4.75-.306 2.613-1.938 10.818-3.627 18.235-3.218 14.13-3.752 19.476-2.052 20.526 1.935 1.196 8.21-3.83 14.244-11.407 6.956-8.737 8.97-12.8 11.21-22.667 1.5-6.648 1.812-7.138 5.14-8.342 1.946-.704 3.724-1.092 3.952-.864s-1.623 9.777-4.114 21.22-4.295 21.038-4 21.323 2.306-.665 4.49-2.1c5.985-3.96 5.882-1.353-.135 3.403-12 9.484-14.728 7.535-11.297-8.067.786-3.575 1.446-6.878 1.465-7.34s-1.697 1.338-3.814 4c-11.54 14.513-23.672 21.36-26.176 14.775zm56.458.103c-5.43-8.29-.102-29.184 9.703-38.042 2.264-2.046 7.018-5.077 10.565-6.737 5.77-2.7 7.18-2.965 13.41-2.52 3.83.274 7.232.77 7.563 1.1s-1.038 8.827-3.043 18.88-3.64 19.335-3.637 20.625l.01 2.345 4.592-2.69c3.95-2.315 4.544-2.442 4.248-.907-.407 2.115-12.407 10.408-15.06 10.408-1.014 0-2.1-.67-2.416-1.492-.53-1.38.984-12.554 2.29-16.894.312-1.037-2.446 1.308-6.13 5.213-7.494 7.944-14.708 13.173-18.173 13.173-1.346 0-2.977-1.024-3.92-2.462zm15.326-7.592c8.932-6.57 15.428-18.11 16.912-30.047.567-4.56.543-4.606-2.73-5.26-5.58-1.116-9.603.247-13.518 4.58-4.212 4.662-6.2 8.96-8.035 17.282-1.608 7.33-1.72 12.007-.35 14.566 1.42 2.652 2.884 2.44 7.724-1.12zm91.112 8.546c-7.795-4.236-7.615-22.243.35-34.784 5.908-9.303 19.755-15.957 27.236-13.086 1.944.746 4.545 5.492 4.545 8.294 0 2.546-5.02 8.315-9.812 11.277-2.02 1.248-7.05 3.46-11.18 4.915l-7.508 2.645-.27 4.874c-.195 3.494.297 5.794 1.735 8.124 1.732 2.804 2.564 3.25 6.07 3.25 4.326 0 8.403-1.692 13.78-5.72 5.107-3.824 5.246-1.586.184 2.96-8.58 7.704-18.845 10.666-25.13 7.252zm12.6-26.883c7.36-3.4 9.828-5.807 11.048-10.772.958-3.9-2.62-7.267-6.825-6.425-4.267.853-7.537 4.135-10.33 10.367-2.19 4.885-3.128 10.22-1.8 10.22.31 0 3.87-1.526 7.906-3.39zm-406.47 26.583c0-.444 1.913-1.232 4.25-1.75 3.458-.767 4.562-1.594 5.924-4.442 1.836-3.84 10.826-50.513 10.826-56.208 0-3.914-1.142-5.288-5.256-6.32-6.227-1.563-1.904-2.472 11.756-2.472 8.54 0 14.5.392 14.5.955 0 .525-1.462 1.232-3.25 1.57-4.122.782-6.42 2.476-7.613 5.614-.518 1.362-2.356 10.1-4.084 19.42l-4.598 24.15c-1.768 8.76-1.86 14.488-.255 16.092.735.735 4.317 1.2 9.25 1.196 6.235-.003 8.776-.446 11.27-1.967 2.808-1.712 7.676-7.4 10.287-12.02.464-.82 1.147-1.188 1.518-.816s-.78 4.53-2.558 9.242l-3.233 8.566h-24.367c-13.402 0-24.367-.364-24.367-.808zm429.798-48.24c-2.75-2.75-2.996-3.504-2.52-7.717.676-5.993 4.103-9.235 9.763-9.235 4.937 0 9.844 4.053 10.397 8.588 1.194 9.794-10.61 15.392-17.638 8.365zm11.13.585c3.148-1.628 4.072-3.338 4.072-7.537 0-4.2-.925-5.9-4.113-7.558-7.517-3.887-15.2 5.384-10.28 12.408 1.436 2.05 4.485 3.912 6.693 4.087.44.035 2.073-.595 3.63-1.4zm-7.928-7.594v-6.058l4.25.308c3.566.258 4.303.68 4.577 2.613.18 1.268-.213 2.955-.872 3.75-.935 1.127-.92 1.78.066 2.97.696.838.94 1.85.54 2.248s-1.625-.513-2.726-2.024c-2.49-3.417-3.835-3.504-3.835-.248 0 1.375-.45 2.5-1 2.5-.557 0-1-2.686-1-6.058zm7-2.442c0-.933-.944-1.5-2.5-1.5s-2.5.567-2.5 1.5.944 1.5 2.5 1.5 2.5-.567 2.5-1.5zm-359-63.78v-36.28l7.25-1.86c3.988-1.022 7.813-2.07 8.5-2.328.905-.34 1.25 1.037 1.25 4.982v5.452l3.866-3.678c4.734-4.503 11.23-6.517 18.315-5.678 17.738 2.1 26.306 25.693 15.992 44.035-6.565 11.674-23.31 15.277-33.022 7.104-3.897-3.28-4.335-3.144-4.13 1.276.095 2.063.13 8.137.077 13.5l-.097 9.75h-18zm33.466.857c4.357-1.82 6.535-6.083 6.53-12.78-.005-6.716-2.57-11.174-7.333-12.746-7.5-2.475-13.894 3.482-13.894 12.946 0 5.95 2.252 10.268 6.43 12.327 4.057 2 4.083 2 8.268.252zm-204.43 14.247c-7.875-2.26-12.037-7.754-12.037-15.893 0-11.69 9.635-17.933 27.682-17.933 5.275 0 8.32-.394 8.32-1.077 0-.592-1.315-2.392-2.923-4-2.7-2.7-3.457-2.92-10.25-2.88-4.03.024-9.127.692-11.327 1.485s-4.14 1.448-4.31 1.456c-.358.017.757-8.67 1.427-11.12.566-2.072 11.277-4.864 18.66-4.864 7.282 0 15.05 2.466 19.175 6.1 5.506 4.834 6.427 8.945 6.766 30.197l.3 18.787-16.015-.573-1-7.463-3.38 3.47c-4.994 5.13-12.735 6.714-21.084 4.32zm18.847-13.457c2.15-1.506 5.117-6.92 5.117-9.337 0-1.472-11.974-1.27-14.983.254-3.63 1.836-4.88 6.103-2.544 8.684 2.3 2.53 9.058 2.748 12.41.4zm105.77 13.648c-2.666-.484-5.116-1.148-5.444-1.476-.56-.56 1.54-12.606 2.34-13.416.204-.206 2.198.356 4.432 1.25 5.172 2.07 15.322 2.173 16.98.173.663-.8.928-2.325.59-3.392-.65-2.05-2.06-2.73-12.64-6.108-4.157-1.327-7.665-3.226-9.5-5.142-2.572-2.685-2.9-3.755-2.9-9.222 0-4.818.5-6.884 2.257-9.35 3.057-4.285 10.034-7.47 17.72-8.086 6.7-.538 19.124 1.295 20.162 2.974.337.546-.175 3.597-1.14 6.78l-1.752 5.788-3.34-1.396c-4.18-1.746-13.448-1.817-15.77-.12-2.95 2.157-.925 4.592 5.222 6.28 14.716 4.045 18.24 6.383 20.115 13.342 2.18 8.1-1.204 15.137-9.262 19.247-4.63 2.362-19.785 3.372-28.06 1.87zm123.517-.503c-7.796-2.433-11.17-7.2-11.17-15.817 0-6.947 2.774-11.2 9.5-14.56 4.122-2.06 6.867-2.576 15.624-2.942 9.84-.41 10.587-.584 10.127-2.345-.273-1.045-1.627-2.8-3.01-3.877-3.175-2.497-15.41-2.768-20.928-.463-1.992.832-3.805 1.33-4.03 1.105s-.043-2.998.404-6.164c.785-5.57.94-5.802 4.812-7.18 6.736-2.4 18.266-2.775 25.005-.816 7.156 2.08 12.818 7.246 14.332 13.078.566 2.18 1.172 12.176 1.346 22.214l.316 18.25-16.5-.001v-3.5c0-4.28-.794-4.368-4.506-.494-4.684 4.89-12.683 6.205-21.325 3.508zm19.817-13.006c1.56-.964 5.036-8.663 4.387-9.714-.27-.437-3.33-.794-6.797-.794-4.866 0-6.908.473-8.94 2.073-4.14 3.256-2.918 8.5 2.365 10.133 1.65.513 7.063-.51 8.986-1.697zm97.748 13.47c-9.725-2.464-18.42-10.214-20.735-18.48-1.726-6.166-.843-16.932 1.816-22.14 7.892-15.454 32.294-19.31 44.547-7.04 4.973 4.98 7.637 12.234 7.637 20.8v5.885h-18c-11.74 0-18 .36-18 1.035 0 2.228 3.283 5.868 6.215 6.9 4.464 1.556 14.266 1.32 18.494-.448 2.005-.838 3.977-1.175 4.383-.75s1.05 3.326 1.43 6.447l.69 5.674-3.856 1.113c-5.385 1.554-20.105 2.163-24.62 1.02zm16.77-34.23c-1.192-4.256-2.73-6.53-5.16-7.64-6.076-2.768-12.485.21-14.29 6.64l-.913 3.25h10.498c10.406 0 10.492-.02 9.867-2.25zm111.77 34.28c-4.606-1.094-7.97-3.555-9.965-7.288-1.362-2.548-1.816-6.5-2.128-18.49l-.396-15.25h-9.786v-13h11v-11.88l8.395-2.56c4.617-1.408 8.667-2.56 9-2.56s.605 3.825.605 8.5v8.5h13v13h-13v12.845c0 15.425.426 16.155 9.417 16.155h5.76l-.66 4.25c-1.097 7.05-1.366 7.463-5.292 8.113-4.78.8-11.838.643-15.948-.334zm-590.275-28.5v-28.46l-17.5-.578v-14l54.588-.532-.588 14.532-17.5.578v56.922h-19zm41.233 2.77l.267-25.69 5.623-1.67c11.863-3.52 10.877-3.77 10.877 2.76v5.747l3.175-3.852c1.746-2.12 4.657-4.47 6.468-5.228 4.156-1.737 11.256-1.802 11.906-.1.267.696-.103 4.184-.823 7.75l-1.31 6.484-5.152.522c-6.082.617-9.77 3.53-11.26 8.903-.546 1.966-.995 9.537-.998 16.824l-.006 13.25h-19.034zm107.5 24.44c-.588-1.534-.268-49.576.334-50.088 1.04-.885 15.846-4.415 16.36-3.9.314.314.57 2.574.57 5.02v4.45l3.943-3.563c9.322-8.422 25.447-7.077 31.896 2.66 2.643 3.99 2.663 4.158 2.966 25.344l.305 21.327h-18.1l-.006-14.25c-.008-20.372-1.602-24.75-9-24.75-5.008 0-8.792 3.212-10.013 8.5-.508 2.2-.935 9.963-.948 17.25l-.023 13.25h-8.893c-6.192 0-9.04-.38-9.372-1.25zm248.716-.02c-.268-.698-.366-12.27-.22-25.715l.268-24.446 8-2.254 8.25-2.285c.138-.017.25 2.547.25 5.698v5.728l3.175-3.852c3.786-4.593 8.138-6.604 14.293-6.604 5.182 0 5.175-.02 3.2 9.5l-1.244 6-5.13.52c-10.1 1.025-12.296 5.458-12.296 24.948v14.032h-9.03c-6.374 0-9.175-.373-9.518-1.27zm107.55-24.527v-25.796l16-4.213v11.06l4.41-4.064c9.712-8.952 25.786-7.892 32.43 2.14 2.643 3.99 2.663 4.158 2.966 25.344l.305 21.327h-18.1l-.01-14.25c-.01-20.372-1.602-24.75-9-24.75-5.008 0-8.792 3.212-10.013 8.5-.508 2.2-.934 9.963-.948 17.25l-.023 13.25h-18zm-191.275-73.84c-.353-.57-2.347-1.1-4.433-1.178-4.23-.157-9.27-1.104-10.792-2.03-.55-.334-2.693-.724-4.762-.867-3.54-.245-7.556-2.157-10.56-5.027-.727-.695-1.656-1.263-2.066-1.263-1.54 0-5.24-8.027-4.61-10.004.94-2.96 2.94-2.487 11.152 2.632 4.084 2.545 7.534 4.458 7.667 4.25s.077-3.414-.124-7.126l-.367-6.748-4.068.65c-2.947.47-3.872.333-3.356-.502.392-.634 2.373-1.16 4.403-1.168 2.75-.01 3.31-.262 2.19-.985-1.22-.788-1.1-.972.69-.985 1.205-.008 2.5-.516 2.878-1.127.44-.7 2.37-.89 5.347-.494 9.467 1.256 32.47-6.76 38.476-13.407 9.172-10.152 10.478-20.588 3.642-29.095-3.55-4.416-2.7-5.343 1.044-1.143 2.386 2.676 5.647 7.99 5.83 9.5.05.413.09 2.41.09 4.44 0 3.514.076 3.598 1.574 1.75.866-1.068 1.258-1.328.872-.58s-.146 1.705.533 2.125c.773.478.967 1.608.52 3.02-.5 1.57-.95 1.88-1.482 1.018-.58-.936-.943-.952-1.49-.066-.4.645-.46 1.44-.134 1.765s.08 1.206-.542 1.958-.92 1.58-.66 1.84c.64.64 6.405-7.515 7.083-10.023 1.45-5.356 1.683-7.5.816-7.5-.522 0-1.145 1.013-1.383 2.25s-.495-.31-.57-3.44-.528-5.933-1.007-6.23-1.135-1.785-1.457-3.31-2.632-4.908-5.133-7.52-4.207-4.75-3.793-4.75-1.086-.91-3.334-2.024-4.948-2.8-6-3.753-5.275-3.443-9.384-5.537-7.934-4.185-8.5-4.647c-2.814-2.297-29.388-9.827-42.53-12.05-26.025-4.405-44.082-5.9-78.5-6.455-20.3-.333-28.74-.104-34 .924-16.193 3.162-19.21 3.66-23.287 3.848-2.358.108-4.608.646-5 1.196s-2.202 1.117-4.02 1.26-4.97 1.107-7 2.143-4.033 1.92-4.45 1.965c-2.998.322-11.743 3.453-11.743 4.204 0 .51-.42.93-.934.93-.966 0-11.066 6.047-11.066 6.625 0 .18 1.05-.073 2.333-.56 1.33-.505 2.94-.512 3.742-.017.775.48 2.537.638 3.917.355L211.15 92l-2.28 1.36c-1.255.747-1.93 1.73-1.5 2.18s-.23.51-1.47.13c-1.36-.418-2.25-.27-2.25.376 0 .587-.6 1.067-1.31 1.067s-2.277.9-3.458 2-2.84 2-3.69 2-1.542.34-1.542.756-1.24 1.304-2.753 1.974-3.427 2.33-4.25 3.685-3.843 4.902-6.7 7.88c-5.83 6.054-7.14 9.815-7.438 21.38-.12 4.676.342 7.82 1.47 9.99 2.915 5.606 10.93 12.702 19.302 17.085 9.464 4.955 16.38 7.313 32.88 11.208 21.592 5.097 26.61 5.544 62 5.522 28.04-.018 35.678-.356 50.818-2.25 13.495-1.687 18.32-1.96 19.885-1.122 2.645 1.416 1.504 2.207-7.06 4.896-26.482 8.315-79.653 11.747-108.644 7.013-15.346-2.506-21.074-3.72-23.377-4.952-1.016-.544-3.334-1.25-5.15-1.57s-5.366-1.415-7.888-2.433l-7.763-3.048c-1.748-.658-3.418-1.823-3.712-2.588s-1.14-1.16-1.882-.874-2.896-.51-4.788-1.767-4.65-2.908-6.13-3.67c-4.334-2.234-13.092-12.162-15.98-18.114-5.447-11.228-6.094-17.298-2.948-27.644 4.932-16.218 21.05-30.844 44.116-40.036 10.44-4.16 20.35-7.342 25-8.026 1.925-.283 3.725-.836 4-1.23.965-1.377 16.667-4 34-5.658 22.252-2.14 58.53-2.09 78.232.11 28.55 3.188 60.714 9.568 64.672 12.828.772.636 1.562 1.036 1.755.888.753-.575 5.893 1.176 7.153 2.437.732.732 1.905 1.33 2.606 1.33 2.194 0 16.78 7.876 18.582 10.033.275.33 2.525 1.976 5 3.66 5.33 3.627 13.187 11.81 15.26 15.9 2.428 4.786 4.306 13.434 3.09 14.22-.584.377-1.35 2.264-1.705 4.194s-1.807 5.69-3.227 8.36-2.127 4.57-1.57 4.226 1.315-.14 1.684.457c.373.604-.23 1.32-1.362 1.615-1.117.292-1.812 1.104-1.543 1.805.608 1.584-8.84 9.97-13.6 12.07-1.94.856-4.26 1.955-5.157 2.442-3.2 1.743-13.54 2.924-23.618 2.7-7.908-.176-10.25.072-10.25 1.084 0 2.286 3.7 8.633 6.658 11.39 4.168 3.9 15.66 9.897 21.64 11.293l5.202 1.215-4 1.08c-3.885 1.05-15.63.9-17.434-.205-.492-.304-1.076-.01-1.297.654-.263.8-.624.848-1.043.17zm45.297-49.114c.012-.412.902-1.875 1.978-3.25s1.966-3.137 1.978-3.917.318-1.12.68-.76c.813.813-2.64 8.677-3.808 8.677-.466 0-.838-.338-.826-.75zM439.15 109.89c-2.2-2.164-5.933-5.076-8.295-6.472s-4.074-2.76-3.804-3.03c.688-.688 13.585 8.014 16.523 11.148 3.954 4.218.067 2.77-4.424-1.647zm-23.5-14.267c-1.375-.786-2.05-1.43-1.5-1.43s2.125.643 3.5 1.43 2.05 1.43 1.5 1.43-2.125-.643-3.5-1.43zm-6-2.5c-.825-.533-1.05-.97-.5-.97s1.675.436 2.5.97 1.05.97.5.97-1.675-.436-2.5-.97zM211.246 90.51c-.353-.92-.406-1.91-.118-2.196s.524.06.524.774c0 .937 1.042 1.134 3.75.7 3.725-.584 2.926.42-1.382 1.735-1.488.454-2.325.146-2.774-1.022zm-4.845-.05c.688-.277 1.813-.277 2.5 0s.125.504-1.25.504-1.937-.227-1.25-.504zm186.063-3.02c.722-.29 1.584-.253 1.917.08s-.258.57-1.312.525c-1.165-.048-1.402-.285-.604-.604zm-5-1c.722-.29 1.584-.253 1.917.08s-.258.57-1.312.525c-1.165-.048-1.402-.285-.604-.604zm-9-2c.722-.29 1.584-.253 1.917.08s-.258.57-1.312.525c-1.165-.048-1.402-.285-.604-.604zm-31.062-3.98c.688-.277 1.813-.277 2.5 0s.125.504-1.25.504-1.937-.227-1.25-.504z" fill="#28368b"/></svg>